# xmcd
#
# Track frame offsets: 
#        150
#        12005
#        30537
#        43015
#        58910
#        80597
#        101665
#        120217
#        141587
#        161745
#        174632
#        192080
#        207962
#        230860
#        244307
#        262120
#        277082
#
# Disc length: 3957 seconds
#
# Revision: 7
# Processed by: cddbd v1.5.2PL0 Copyright (c) Steve Scherf et al.
# Submitted via: ExactAudioCopy v0.99pb5
#
DISCID=fc0f7311
DTITLE=Saffire - The Uppity Blues Women - Cleaning House
DYEAR=1996
DGENRE=Blues
TTITLE0=Because of You
TTITLE1=Hungy Woman's Blues
TTITLE2=Rocket Ship
TTITLE3=In My Girlish Days
TTITLE4=Don't Do It
TTITLE5=(I'll Be Your) Sweet Black Angel
TTITLE6=I'd Rather Be Alone
TTITLE7=Love Me To Death
TTITLE8=I Lost My Baby To Another Man
TTITLE9=If Love Hurts (You're Not Doing It Right)
TTITLE10=Nobody But You
TTITLE11=I Want My Money Back
TTITLE12=Blues Is In the House
TTITLE13=Bad Debt
TTITLE14=Things Are Seldom What They Seem To Be
TTITLE15=Tomorrow Ain't Promised
TTITLE16=The Equalizer
EXTD=LABEL =Alligator Records and Artist Mgmt., Inc.\nID =ALCD4840\nUP
EXTD=C =014551-4840-28\nCOPYRIGHT =1996
EXTT0=
EXTT1=
EXTT2=
EXTT3=
EXTT4=
EXTT5=
EXTT6=
EXTT7=
EXTT8=
EXTT9=
EXTT10=
EXTT11=
EXTT12=
EXTT13=
EXTT14=
EXTT15=
EXTT16=
PLAYORDER=
